<svg width="80" height="80" viewBox="0 0 80 80" fill="none" xmlns="http://www.w3.org/2000/svg">
<g clip-path="url(#clip0_11119_38406)">
<g filter="url(#filter0_i_11119_38406)">
<circle cx="40" cy="40" r="40" fill="#1BA136"/>
</g>
<mask id="mask0_11119_38406" style="mask-type:alpha" maskUnits="userSpaceOnUse" x="0" y="0" width="80" height="80">
<circle cx="40" cy="40" r="40" fill="#3588FD"/>
</mask>
<g mask="url(#mask0_11119_38406)">
<path d="M21.6439 16.8693C21.6439 18.8668 22.4374 20.7824 23.8498 22.1948C25.2622 23.6072 27.1778 24.4006 29.1752 24.4006C31.1727 24.4006 33.0883 23.6072 34.5007 22.1948C35.9131 20.7824 36.7065 18.8668 36.7065 16.8693L29.1752 16.8693L21.6439 16.8693Z" fill="#1A1A1A"/>
<path fill-rule="evenodd" clip-rule="evenodd" d="M54.2358 55.3481C65.3511 40.6381 66.7162 29.9583 66.7162 27.1372C66.7162 17.0618 58.7209 8.80005 48.9707 8.80005C39.2204 8.80005 38.8689 11.6198 35.5538 16.2545C33.4087 18.6726 30.6402 21.898 29.0802 25.9281C25.7651 33.1824 37.6604 33.7869 34.9303 40.6381C14.2598 51.318 12.3093 61.8635 12.1143 71.1328H67.8857C66.3257 66.4982 61.256 59.7813 54.4308 55.3481H54.2358Z" fill="white"/>
<path d="M45.6881 20.7617C46.0356 22.2621 47.5348 23.2033 49.0368 22.8639C50.5388 22.5245 51.4747 21.033 51.1273 19.5326C50.7799 18.0322 49.2806 17.0911 47.7786 17.4305C46.2766 17.7699 45.3407 19.2614 45.6881 20.7617Z" fill="#1D1D1B"/>
<path d="M21.2806 41.9185C30.0559 43.9503 36.296 41.1057 43.7062 37.6516C51.1164 34.1975 41.9512 31.1498 40.7811 25.8671C39.6111 20.5844 40.3911 18.7557 37.0761 17.5366C33.761 16.3175 30.0559 22.8194 27.9108 25.8671C26.5458 27.6957 19.7206 32.7753 16.6005 31.5562C11.1404 30.5403 11.5304 36.6357 13.8704 38.4644C15.8205 40.0898 19.1356 41.3089 21.2806 41.9185Z" fill="#FFC94D"/>
<path d="M38.3971 16.8693C38.3971 18.8668 39.1906 20.7824 40.603 22.1948C42.0154 23.6072 43.931 24.4006 45.9284 24.4006C47.9259 24.4006 49.8415 23.6072 51.2539 22.1948C52.6663 20.7824 53.4597 18.8668 53.4597 16.8693L45.9284 16.8693L38.3971 16.8693Z" fill="#1A1A1A"/>
<path d="M31.9417 16.8694H39.3193V18.6369H31.9417V16.8694Z" fill="#1A1A1A"/>
<ellipse cx="39.4918" cy="77.8703" rx="28.5714" ry="28.3792" transform="rotate(45 39.4918 77.8703)" fill="white"/>
</g>
</g>
<defs>
<filter id="filter0_i_11119_38406" x="0" y="0" width="80" height="80" filterUnits="userSpaceOnUse" color-interpolation-filters="sRGB">
<feFlood flood-opacity="0" result="BackgroundImageFix"/>
<feBlend mode="normal" in="SourceGraphic" in2="BackgroundImageFix" result="shape"/>
<feColorMatrix in="SourceAlpha" type="matrix" values="0 0 0 0 0 0 0 0 0 0 0 0 0 0 0 0 0 0 127 0" result="hardAlpha"/>
<feOffset dx="-1" dy="2"/>
<feComposite in2="hardAlpha" operator="arithmetic" k2="-1" k3="1"/>
<feColorMatrix type="matrix" values="0 0 0 0 0 0 0 0 0 0.413593 0 0 0 0 0.0833359 0 0 0 1 0"/>
<feBlend mode="normal" in2="shape" result="effect1_innerShadow_11119_38406"/>
</filter>
<clipPath id="clip0_11119_38406">
<rect width="80" height="80" fill="white"/>
</clipPath>
</defs>
</svg>
