<svg width="376" height="160" viewBox="0 0 376 160" fill="none" xmlns="http://www.w3.org/2000/svg">
<g clip-path="url(#clip0_11119_34356)">
<mask id="mask0_11119_34356" style="mask-type:alpha" maskUnits="userSpaceOnUse" x="-1" y="0" width="377" height="160">
<rect x="-1" width="377" height="160" fill="url(#paint0_linear_11119_34356)"/>
</mask>
<g mask="url(#mask0_11119_34356)">
<g filter="url(#filter0_i_11119_34356)">
<rect y="20" width="72" height="120" rx="8" fill="url(#paint1_linear_11119_34356)"/>
<path d="M28.5121 113.6V59.84H10.5601V46.4H61.4401V59.84H43.4881V113.6H28.5121Z" fill="white"/>
</g>
<g filter="url(#filter1_i_11119_34356)">
<rect x="152" y="20" width="72" height="120" rx="8" fill="url(#paint2_linear_11119_34356)"/>
<path d="M197.504 113.6V88.832C197.504 88.832 192.32 91.52 183.68 91.52C169.568 91.52 163.52 85.472 163.52 69.44V46.4H178.496V68.48C178.496 75.296 181.28 78.08 187.52 78.08C194.24 78.08 197.504 75.968 197.504 75.968V46.4H212.48V113.6H197.504Z" fill="white"/>
</g>
<g filter="url(#filter2_i_11119_34356)">
<rect x="304" y="-47" width="72" height="120" rx="8" fill="url(#paint3_linear_11119_34356)"/>
<path d="M340 47.944C319.84 47.944 309.76 37.864 309.76 13C309.76 -11.384 320.32 -21.944 340 -21.944C360.64 -21.944 370.24 -12.344 370.24 13C370.24 37.384 359.68 47.944 340 47.944ZM340 34.504C349.792 34.504 354.688 29.512 354.688 13C354.688 -3.51197 349.696 -8.50397 340 -8.50397C330.304 -8.50397 325.312 -3.51197 325.312 13C325.312 29.512 330.304 34.504 340 34.504Z" fill="white"/>
</g>
<g filter="url(#filter3_i_11119_34356)">
<rect x="304" y="77" width="72" height="120" rx="8" fill="url(#paint4_linear_11119_34356)"/>
<path d="M340 171.944C319.84 171.944 309.76 161.864 309.76 137C309.76 112.616 320.32 102.056 340 102.056C360.64 102.056 370.24 111.656 370.24 137C370.24 161.384 359.68 171.944 340 171.944ZM340 158.504C349.792 158.504 354.688 153.512 354.688 137C354.688 120.488 349.696 115.496 340 115.496C330.304 115.496 325.312 120.488 325.312 137C325.312 153.512 330.304 158.504 340 158.504Z" fill="white"/>
</g>
<g filter="url(#filter4_i_11119_34356)">
<rect x="228" y="-13" width="72" height="120" rx="8" fill="url(#paint5_linear_11119_34356)"/>
<path d="M237.12 80.6V13.4H252.096V39.608H275.904V13.4H290.88V80.6H275.904V53.048H252.096V80.6H237.12Z" fill="white"/>
</g>
<g filter="url(#filter5_i_11119_34356)">
<rect x="228" y="111" width="72" height="120" rx="8" fill="url(#paint6_linear_11119_34356)"/>
<path d="M237.12 204.6V137.4H252.096V163.608H275.904V137.4H290.88V204.6H275.904V177.048H252.096V204.6H237.12Z" fill="white"/>
</g>
<g filter="url(#filter6_i_11119_34356)">
<rect x="76" y="20" width="72" height="120" rx="8" fill="url(#paint7_linear_11119_34356)"/>
<path d="M112 114.944C91.84 114.944 81.76 104.864 81.76 80C81.76 55.616 92.32 45.056 112 45.056C132.64 45.056 142.24 54.656 142.24 80C142.24 104.384 131.68 114.944 112 114.944ZM112 101.504C121.792 101.504 126.688 96.512 126.688 80C126.688 63.488 121.696 58.496 112 58.496C102.304 58.496 97.312 63.488 97.312 80C97.312 96.512 102.304 101.504 112 101.504Z" fill="white"/>
</g>
</g>
</g>
<defs>
<filter id="filter0_i_11119_34356" x="0" y="20" width="72" height="120" filterUnits="userSpaceOnUse" color-interpolation-filters="sRGB">
<feFlood flood-opacity="0" result="BackgroundImageFix"/>
<feBlend mode="normal" in="SourceGraphic" in2="BackgroundImageFix" result="shape"/>
<feColorMatrix in="SourceAlpha" type="matrix" values="0 0 0 0 0 0 0 0 0 0 0 0 0 0 0 0 0 0 127 0" result="hardAlpha"/>
<feOffset dx="2" dy="-1"/>
<feComposite in2="hardAlpha" operator="arithmetic" k2="-1" k3="1"/>
<feColorMatrix type="matrix" values="0 0 0 0 1 0 0 0 0 1 0 0 0 0 1 0 0 0 0.24 0"/>
<feBlend mode="normal" in2="shape" result="effect1_innerShadow_11119_34356"/>
</filter>
<filter id="filter1_i_11119_34356" x="152" y="20" width="72" height="120" filterUnits="userSpaceOnUse" color-interpolation-filters="sRGB">
<feFlood flood-opacity="0" result="BackgroundImageFix"/>
<feBlend mode="normal" in="SourceGraphic" in2="BackgroundImageFix" result="shape"/>
<feColorMatrix in="SourceAlpha" type="matrix" values="0 0 0 0 0 0 0 0 0 0 0 0 0 0 0 0 0 0 127 0" result="hardAlpha"/>
<feOffset dx="2" dy="-1"/>
<feComposite in2="hardAlpha" operator="arithmetic" k2="-1" k3="1"/>
<feColorMatrix type="matrix" values="0 0 0 0 1 0 0 0 0 1 0 0 0 0 1 0 0 0 0.24 0"/>
<feBlend mode="normal" in2="shape" result="effect1_innerShadow_11119_34356"/>
</filter>
<filter id="filter2_i_11119_34356" x="304" y="-47" width="72" height="120" filterUnits="userSpaceOnUse" color-interpolation-filters="sRGB">
<feFlood flood-opacity="0" result="BackgroundImageFix"/>
<feBlend mode="normal" in="SourceGraphic" in2="BackgroundImageFix" result="shape"/>
<feColorMatrix in="SourceAlpha" type="matrix" values="0 0 0 0 0 0 0 0 0 0 0 0 0 0 0 0 0 0 127 0" result="hardAlpha"/>
<feOffset dx="2" dy="-1"/>
<feComposite in2="hardAlpha" operator="arithmetic" k2="-1" k3="1"/>
<feColorMatrix type="matrix" values="0 0 0 0 1 0 0 0 0 1 0 0 0 0 1 0 0 0 0.24 0"/>
<feBlend mode="normal" in2="shape" result="effect1_innerShadow_11119_34356"/>
</filter>
<filter id="filter3_i_11119_34356" x="304" y="77" width="72" height="120" filterUnits="userSpaceOnUse" color-interpolation-filters="sRGB">
<feFlood flood-opacity="0" result="BackgroundImageFix"/>
<feBlend mode="normal" in="SourceGraphic" in2="BackgroundImageFix" result="shape"/>
<feColorMatrix in="SourceAlpha" type="matrix" values="0 0 0 0 0 0 0 0 0 0 0 0 0 0 0 0 0 0 127 0" result="hardAlpha"/>
<feOffset dx="2" dy="-1"/>
<feComposite in2="hardAlpha" operator="arithmetic" k2="-1" k3="1"/>
<feColorMatrix type="matrix" values="0 0 0 0 1 0 0 0 0 1 0 0 0 0 1 0 0 0 0.24 0"/>
<feBlend mode="normal" in2="shape" result="effect1_innerShadow_11119_34356"/>
</filter>
<filter id="filter4_i_11119_34356" x="228" y="-13" width="72" height="120" filterUnits="userSpaceOnUse" color-interpolation-filters="sRGB">
<feFlood flood-opacity="0" result="BackgroundImageFix"/>
<feBlend mode="normal" in="SourceGraphic" in2="BackgroundImageFix" result="shape"/>
<feColorMatrix in="SourceAlpha" type="matrix" values="0 0 0 0 0 0 0 0 0 0 0 0 0 0 0 0 0 0 127 0" result="hardAlpha"/>
<feOffset dx="2" dy="-1"/>
<feComposite in2="hardAlpha" operator="arithmetic" k2="-1" k3="1"/>
<feColorMatrix type="matrix" values="0 0 0 0 1 0 0 0 0 1 0 0 0 0 1 0 0 0 0.24 0"/>
<feBlend mode="normal" in2="shape" result="effect1_innerShadow_11119_34356"/>
</filter>
<filter id="filter5_i_11119_34356" x="228" y="111" width="72" height="120" filterUnits="userSpaceOnUse" color-interpolation-filters="sRGB">
<feFlood flood-opacity="0" result="BackgroundImageFix"/>
<feBlend mode="normal" in="SourceGraphic" in2="BackgroundImageFix" result="shape"/>
<feColorMatrix in="SourceAlpha" type="matrix" values="0 0 0 0 0 0 0 0 0 0 0 0 0 0 0 0 0 0 127 0" result="hardAlpha"/>
<feOffset dx="2" dy="-1"/>
<feComposite in2="hardAlpha" operator="arithmetic" k2="-1" k3="1"/>
<feColorMatrix type="matrix" values="0 0 0 0 1 0 0 0 0 1 0 0 0 0 1 0 0 0 0.24 0"/>
<feBlend mode="normal" in2="shape" result="effect1_innerShadow_11119_34356"/>
</filter>
<filter id="filter6_i_11119_34356" x="76" y="20" width="72" height="120" filterUnits="userSpaceOnUse" color-interpolation-filters="sRGB">
<feFlood flood-opacity="0" result="BackgroundImageFix"/>
<feBlend mode="normal" in="SourceGraphic" in2="BackgroundImageFix" result="shape"/>
<feColorMatrix in="SourceAlpha" type="matrix" values="0 0 0 0 0 0 0 0 0 0 0 0 0 0 0 0 0 0 127 0" result="hardAlpha"/>
<feOffset dx="2" dy="-1"/>
<feComposite in2="hardAlpha" operator="arithmetic" k2="-1" k3="1"/>
<feColorMatrix type="matrix" values="0 0 0 0 1 0 0 0 0 1 0 0 0 0 1 0 0 0 0.24 0"/>
<feBlend mode="normal" in2="shape" result="effect1_innerShadow_11119_34356"/>
</filter>
<linearGradient id="paint0_linear_11119_34356" x1="187.5" y1="0" x2="187.5" y2="160" gradientUnits="userSpaceOnUse">
<stop stop-color="white" stop-opacity="0"/>
<stop offset="0.2" stop-color="white"/>
<stop offset="0.8" stop-color="white"/>
<stop offset="1" stop-color="white" stop-opacity="0"/>
</linearGradient>
<linearGradient id="paint1_linear_11119_34356" x1="36" y1="20" x2="36" y2="140" gradientUnits="userSpaceOnUse">
<stop stop-color="#46AE5A"/>
<stop offset="0.5" stop-color="#1BA136"/>
<stop offset="1" stop-color="#46AE5A"/>
</linearGradient>
<linearGradient id="paint2_linear_11119_34356" x1="188" y1="20" x2="188" y2="140" gradientUnits="userSpaceOnUse">
<stop stop-color="#46AE5A"/>
<stop offset="0.5" stop-color="#1BA136"/>
<stop offset="1" stop-color="#46AE5A"/>
</linearGradient>
<linearGradient id="paint3_linear_11119_34356" x1="340" y1="-47" x2="340" y2="73" gradientUnits="userSpaceOnUse">
<stop stop-color="#46AE5A"/>
<stop offset="0.5" stop-color="#1BA136"/>
<stop offset="1" stop-color="#46AE5A"/>
</linearGradient>
<linearGradient id="paint4_linear_11119_34356" x1="340" y1="77" x2="340" y2="197" gradientUnits="userSpaceOnUse">
<stop stop-color="#46AE5A"/>
<stop offset="0.5" stop-color="#1BA136"/>
<stop offset="1" stop-color="#46AE5A"/>
</linearGradient>
<linearGradient id="paint5_linear_11119_34356" x1="264" y1="-13" x2="264" y2="107" gradientUnits="userSpaceOnUse">
<stop stop-color="#46AE5A"/>
<stop offset="0.5" stop-color="#1BA136"/>
<stop offset="1" stop-color="#46AE5A"/>
</linearGradient>
<linearGradient id="paint6_linear_11119_34356" x1="264" y1="111" x2="264" y2="231" gradientUnits="userSpaceOnUse">
<stop stop-color="#46AE5A"/>
<stop offset="0.5" stop-color="#1BA136"/>
<stop offset="1" stop-color="#46AE5A"/>
</linearGradient>
<linearGradient id="paint7_linear_11119_34356" x1="112" y1="20" x2="112" y2="140" gradientUnits="userSpaceOnUse">
<stop stop-color="#46AE5A"/>
<stop offset="0.5" stop-color="#1BA136"/>
<stop offset="1" stop-color="#46AE5A"/>
</linearGradient>
<clipPath id="clip0_11119_34356">
<rect width="376" height="160" fill="white"/>
</clipPath>
</defs>
</svg>
